<svg width="512" height="512" viewBox="0 0 512 512" xmlns="http://www.w3.org/2000/svg">
  <!-- Viking shield background -->
  <rect x="0" y="0" width="512" height="512" fill="#8B4513"/>
  
  <!-- Shield shape -->
  <path d="M64 64 L448 64 L448 384 L256 448 L64 384 Z" fill="#D2691E" stroke="#5D4037" stroke-width="8"/>
  
  <!-- Inner shield details -->
  <path d="M96 96 L416 96 L416 352 L256 400 L96 352 Z" fill="#CD853F" stroke="#5D4037" stroke-width="4"/>
  
  <!-- Crossed swords -->
  <line x1="176" y1="176" x2="336" y2="336" stroke="#F5E6D3" stroke-width="16" stroke-linecap="round"/>
  <line x1="336" y1="176" x2="176" y2="336" stroke="#F5E6D3" stroke-width="16" stroke-linecap="round"/>
  
  <!-- Sword hilts -->
  <circle cx="176" cy="176" r="20" fill="#5D4037"/>
  <circle cx="336" cy="176" r="20" fill="#5D4037"/>
  <circle cx="176" cy="336" r="20" fill="#5D4037"/>
  <circle cx="336" cy="336" r="20" fill="#5D4037"/>
  
  <!-- Center emblem -->
  <circle cx="256" cy="256" r="48" fill="#F5E6D3" stroke="#5D4037" stroke-width="6"/>
  <text x="256" y="280" text-anchor="middle" font-family="serif" font-size="64" font-weight="bold" fill="#8B4513">V</text>
  
  <!-- Decorative elements -->
  <circle cx="256" cy="128" r="12" fill="#F5E6D3"/>
  <circle cx="256" cy="384" r="12" fill="#F5E6D3"/>
  <circle cx="128" cy="256" r="12" fill="#F5E6D3"/>
  <circle cx="384" cy="256" r="12" fill="#F5E6D3"/>
</svg>
